<svg xmlns="http://www.w3.org/2000/svg" viewBox="0 0 600 800" width="600" height="800" preserveAspectRatio="xMidYMid slice" role="img" aria-label="Audio waveform turning into meeting notes">
  <defs>
    <linearGradient id="bg" x1="0" y1="0" x2="1" y2="1">
      <stop offset="0" stop-color="#0f172a"/>
      <stop offset="1" stop-color="#1e3a5f"/>
    </linearGradient>
    <linearGradient id="bar" x1="0" y1="0" x2="0" y2="1">
      <stop offset="0" stop-color="#7dd3fc"/>
      <stop offset="1" stop-color="#38bdf8"/>
    </linearGradient>
  </defs>
  <rect width="600" height="800" fill="url(#bg)"/>
  <g fill="url(#bar)" opacity="0.95">
    <rect x="60" y="360" width="14" height="80" rx="7"/>
    <rect x="90" y="320" width="14" height="160" rx="7"/>
    <rect x="120" y="280" width="14" height="240" rx="7"/>
    <rect x="150" y="340" width="14" height="120" rx="7"/>
    <rect x="180" y="300" width="14" height="200" rx="7"/>
    <rect x="210" y="250" width="14" height="300" rx="7"/>
    <rect x="240" y="330" width="14" height="140" rx="7"/>
    <rect x="270" y="290" width="14" height="220" rx="7"/>
    <rect x="300" y="370" width="14" height="60" rx="7"/>
    <rect x="330" y="310" width="14" height="180" rx="7"/>
  </g>
  <g transform="translate(370 250)">
    <rect x="0" y="0" width="180" height="300" rx="18" fill="#f8fafc" opacity="0.96"/>
    <rect x="22" y="28" width="96" height="12" rx="6" fill="#0f172a"/>
    <rect x="22" y="62" width="136" height="8" rx="4" fill="#94a3b8"/>
    <rect x="22" y="82" width="120" height="8" rx="4" fill="#94a3b8"/>
    <rect x="22" y="102" width="130" height="8" rx="4" fill="#94a3b8"/>
    <rect x="22" y="140" width="12" height="12" rx="3" fill="none" stroke="#0ea5e9" stroke-width="2"/>
    <rect x="44" y="142" width="110" height="8" rx="4" fill="#64748b"/>
    <rect x="22" y="166" width="12" height="12" rx="3" fill="none" stroke="#0ea5e9" stroke-width="2"/>
    <rect x="44" y="168" width="90" height="8" rx="4" fill="#64748b"/>
    <rect x="22" y="192" width="12" height="12" rx="3" fill="#0ea5e9"/>
    <rect x="44" y="194" width="100" height="8" rx="4" fill="#64748b"/>
    <rect x="22" y="236" width="60" height="22" rx="11" fill="#bae6fd"/>
    <rect x="90" y="236" width="68" height="22" rx="11" fill="#e0f2fe"/>
  </g>
  <path d="M352 400 C 360 400, 362 400, 370 400" stroke="#7dd3fc" stroke-width="3" stroke-linecap="round" stroke-dasharray="6 6"/>
</svg>
